#!OML:ASF E:/inclinewalkrobotboard/Project1/Captureday1/Session1/subject1.ASF
:FULLY-SPECIFIED
:DEGREES
1
root 0 0 0 1.4290171375579281 -3.5545314314802363 1.8698720297039186
lowerback 11.96758602055449 0.9021021969777203 -0.0751215987381959
upperback -4.437571665266353 1.1340087949233677 -0.6297526916835486
thorax -11.556817419220188 0.5207718544842006 -0.8841657637616481
lowerneck -6.093157646079658 1.6521497175742124 4.628478026687778
upperneck 18.447457888168206 3.1572549488903623 -8.270997332455455
head 6.779464290098024 1.1635767389536076 -3.1906133676761548
rclavicle -1.7836358165032906E-16 -9.712861339679644E-16
rhumerus 22.13849494407407 15.892528229032779 -46.59624306144591
rradius 74.2315006817582
rwrist 27.85141838745744
rhand -34.82710398027284 -59.62110300288742
rfingers 7.12502
rthumb -7.987577989730751 -89.43524337149525
lclavicle -1.7406983628540626E-16 -9.489211110233343E-16
lhumerus 22.705074586982928 -12.773595419093366 43.693618535805285
lradius 71.25184711822055
lwrist -23.589964045283498
lhand -45.306735075579766 -73.04218634326067
lfingers 7.12502
lthumb -18.065208222828772 -43.8262781091335
rfemur -25.649135260725508 -2.1760729754691015 16.654889614817193
rtibia 54.748033781076636
rfoot -27.386326944612343 -16.501080500172012
rtoes -17.748757580698356
lfemur -21.838626540602977 1.2398035828249103 -18.176043712404585
ltibia 48.68201865196146
lfoot -23.772637468712716 -3.6023570564767002
ltoes -15.448982556034508
2
root 0 0 0 1.4290987964526263 -3.5505862896287743 1.8761495232112824
lowerback 11.967716202755218 0.8997746813340585 -0.08135902934028205
upperback -4.437623846062104 1.1302157888989943 -0.6301252285175704
thorax -11.557256237147842 0.5190739602521002 -0.8805010253337472
lowerneck -6.091919905914482 1.6531878528959514 4.628580567045617
upperneck 18.447357074712272 3.158406552184337 -8.272215961141042
head 6.779174716396049 1.1640775240883503 -3.1908268895935223
rclavicle -1.7499088064700601E-16 -9.705518680322417E-16
rhumerus 22.213961811537267 15.941813224196688 -46.54943789079168
rradius 74.30117379488762
rwrist 27.886246626886827
rhand -34.85214291766563 -59.74067498805101
rfingers 7.12502
rthumb -8.012098336553429 -89.55341512545334
lclavicle -1.7316405865870853E-16 -9.491076341986366E-16
lhumerus 22.760623612800703 -12.787597325510442 43.65468761646521
lradius 71.295223057211
lwrist -23.619684687254402
lhand -45.325613732628156 -73.13970238391336
lfingers 7.12502
lthumb -18.08341721978716 -43.92188872351743
rfemur -25.64800594713374 -2.1757935980191947 16.65540326635913
rtibia 54.74800874800321
rfoot -27.38372228116215 -16.499322351916305
rtoes -17.74651208981439
lfemur -21.794808144554082 1.2291047016673196 -18.18306221808308
ltibia 48.623808273915216
lfoot -23.722938875213302 -3.600348152477797
ltoes -15.411998740164934
3
root 0 0 0 1.428644192083067 -3.5458260236246266 1.8827761357731683
lowerback 11.967587724908466 0.8969754279449029 -0.08855713369291895
upperback -4.436864592753208 1.1256761779735798 -0.6301141631802557
thorax -11.556752684927508 0.5170345488848133 -0.8757646348592151
lowerneck -6.0921899953919665 1.6536680766280545 4.627460978025197
upperneck 18.447251697172963 3.1587015651921377 -8.272198628222206
head 6.779093763819551 1.1642050945879632 -3.190474590871202
rclavicle -1.74412581554508E-16 -9.70434470523628E-16
rhumerus 22.227154915179554 15.950399689730043 -46.54118190607754
rradius 74.31349673343144
rwrist 27.892422835278683
rhand -34.85649498528775 -59.761863937915344
rfingers 7.12502
rthumb -8.016400295297238 -89.5743770690627
lclavicle -1.7301472284130926E-16 -9.49072448221165E-16
lhumerus 22.7737707200323 -12.79082480386599 43.64554901023288
lradius 71.30544475167501
lwrist -23.6266070409566
lhand -45.33004261874627 -73.16241741809016
lfingers 7.12502
lthumb -18.08762045765009 -43.944591637566546
rfemur -25.650549543586436 -2.176988139937019 16.65365847773691
rtibia 54.75095385371989
rfoot -27.386019672482757 -16.50071383382604
rtoes -17.749541430466
lfemur -21.77360004194497 1.224068632212157 -18.18656144672925
ltibia 48.59624592947556
lfoot -23.698872881820616 -3.5998061281346003
ltoes -15.394603888692188
4
root 0 0 0 1.427941579286089 -3.540807024734679 1.8893958766118943
lowerback 11.967363913807464 0.8940339346022306 -0.09598664668490742
upperback -4.435769877798837 1.1209289023534244 -0.6299538961265253
thorax -11.555839953743504 0.5149015921394219 -0.8707115912457816
lowerneck -6.093118717472455 1.6538870040039069 4.6258720726821965
upperneck 18.447157694200165 3.1586015641334364 -8.271643409627634
head 6.779115542940507 1.1641623203851892 -3.189903717792217
rclavicle -1.743324905344014E-16 -9.704308860541131E-16
rhumerus 22.22672701031324 15.950044828892066 -46.54133205877136
rradius 74.31311572003975
rwrist 27.89231073745478
rhand -34.8563591691571 -59.76134765978474
rfingers 7.12502
rthumb -8.016282383744429 -89.57383588532932
lclavicle -1.7295200217139384E-16 -9.491039073463294E-16
lhumerus 22.779418426818 -12.792220514048816 43.64160489120961
lradius 71.30985637327161
lwrist -23.629585874309722
lhand -45.33195472159588 -73.17222142391988
lfingers 7.12502
lthumb -18.089445250749403 -43.954405332996586
rfemur -25.6515695376892 -2.1774207045674974 16.65305008814861
rtibia 54.75207394021119
rfoot -27.3864926064083 -16.501095391937785
rtoes -17.75043347899991
lfemur -21.76275066840884 1.2216550208491217 -18.188401541115436
ltibia 48.5831312052692
lfoot -23.686800148071022 -3.5999884214423976
ltoes -15.386419483876068
